<svg viewBox="0 0 400 500" xmlns="http://www.w3.org/2000/svg">
  <text x="200" y="30" font-size="20" font-weight="bold" text-anchor="middle" font-family="sans-serif">Quadcopter Drone</text>
  <circle cx="90" cy="150" r="48" stroke="black" fill="none" stroke-width="1.5"/>
  <circle cx="90" cy="150" r="8" stroke="black" fill="none" stroke-width="2"/>
  <line x1="56" y1="116" x2="124" y2="184" stroke="black" fill="none" stroke-width="1"/>
  <line x1="56" y1="184" x2="124" y2="116" stroke="black" fill="none" stroke-width="1"/>
  <circle cx="310" cy="150" r="48" stroke="black" fill="none" stroke-width="1.5"/>
  <circle cx="310" cy="150" r="8" stroke="black" fill="none" stroke-width="2"/>
  <line x1="276" y1="116" x2="344" y2="184" stroke="black" fill="none" stroke-width="1"/>
  <line x1="276" y1="184" x2="344" y2="116" stroke="black" fill="none" stroke-width="1"/>
  <circle cx="90" cy="330" r="48" stroke="black" fill="none" stroke-width="1.5"/>
  <circle cx="90" cy="330" r="8" stroke="black" fill="none" stroke-width="2"/>
  <line x1="56" y1="296" x2="124" y2="364" stroke="black" fill="none" stroke-width="1"/>
  <line x1="56" y1="364" x2="124" y2="296" stroke="black" fill="none" stroke-width="1"/>
  <circle cx="310" cy="330" r="48" stroke="black" fill="none" stroke-width="1.5"/>
  <circle cx="310" cy="330" r="8" stroke="black" fill="none" stroke-width="2"/>
  <line x1="276" y1="296" x2="344" y2="364" stroke="black" fill="none" stroke-width="1"/>
  <line x1="276" y1="364" x2="344" y2="296" stroke="black" fill="none" stroke-width="1"/>
  <!-- booms -->
  <line x1="120" y1="180" x2="180" y2="225" stroke="black" fill="none" stroke-width="3"/>
  <line x1="280" y1="180" x2="220" y2="225" stroke="black" fill="none" stroke-width="3"/>
  <line x1="120" y1="300" x2="180" y2="255" stroke="black" fill="none" stroke-width="3"/>
  <line x1="280" y1="300" x2="220" y2="255" stroke="black" fill="none" stroke-width="3"/>
  <!-- body -->
  <rect x="165" y="215" width="70" height="55" rx="10" stroke="black" fill="none" stroke-width="2"/>
  <circle cx="200" cy="242" r="16" stroke="black" fill="none" stroke-width="1.5"/>
  <circle cx="200" cy="242" r="8" stroke="black" fill="none" stroke-width="1.5"/>
  <!-- landing legs -->
  <line x1="178" y1="270" x2="168" y2="300" stroke="black" fill="none" stroke-width="2"/>
  <line x1="222" y1="270" x2="232" y2="300" stroke="black" fill="none" stroke-width="2"/>
  <line x1="150" y1="300" x2="250" y2="300" stroke="black" fill="none" stroke-width="2"/>
  <defs>
    <pattern id="g7" width="20" height="20" patternUnits="userSpaceOnUse">
      <path d="M 20 0 L 0 0 0 20" fill="none" stroke="#f0f0f0" stroke-width="0.5"/>
    </pattern>
  </defs>
  <rect width="400" height="500" fill="url(#g7)" opacity="0.3"/>
</svg>
