<svg xmlns="http://www.w3.org/2000/svg" viewBox="0 0 800 450"><title>Arduino, Python, and components</title><rect width="800" height="450" fill="#fff"/><text x="400.0" y="36" text-anchor="middle" font-family="Jost,Arial,sans-serif" font-weight="800" font-size="24" fill="#220111">Your toolbox</text><rect x="90" y="130" width="200" height="130" rx="10" fill="#1E7A7A" stroke="#220111" stroke-width="2.5"/><rect x="100" y="136" width="14" height="10" rx="2" fill="#FFD23F" stroke="#220111" stroke-width="1"/><rect x="122" y="136" width="14" height="10" rx="2" fill="#FFD23F" stroke="#220111" stroke-width="1"/><rect x="144" y="136" width="14" height="10" rx="2" fill="#FFD23F" stroke="#220111" stroke-width="1"/><rect x="166" y="136" width="14" height="10" rx="2" fill="#FFD23F" stroke="#220111" stroke-width="1"/><rect x="188" y="136" width="14" height="10" rx="2" fill="#FFD23F" stroke="#220111" stroke-width="1"/><rect x="210" y="136" width="14" height="10" rx="2" fill="#FFD23F" stroke="#220111" stroke-width="1"/><rect x="232" y="136" width="14" height="10" rx="2" fill="#FFD23F" stroke="#220111" stroke-width="1"/><rect x="254" y="136" width="14" height="10" rx="2" fill="#FFD23F" stroke="#220111" stroke-width="1"/><circle cx="190" cy="200" r="22" fill="#9aa0a6" stroke="#220111" stroke-width="2.5"/><text x="190" y="290" text-anchor="middle" font-family="Jost,Arial,sans-serif" font-weight="700" font-size="14" fill="#220111">Arduino</text><rect x="330" y="140" width="150" height="110" rx="12" fill="#D9ECFA" stroke="#220111" stroke-width="2.5"/><text x="405" y="185" text-anchor="middle" font-family="Jost,Arial,sans-serif" font-weight="800" font-size="30" fill="#7FB3E0">&lt;/&gt;</text><text x="405" y="290" text-anchor="middle" font-family="Jost,Arial,sans-serif" font-weight="700" font-size="14" fill="#220111">Python</text><circle cx="560" cy="170" r="16" fill="#FFD23F" stroke="#220111" stroke-width="2.5"/><text x="560" y="200" text-anchor="middle" font-family="Jost,Arial,sans-serif" font-weight="600" font-size="11" fill="#220111">LED</text><rect x="620" y="158" width="40" height="26" rx="6" fill="#F07B1D" stroke="#220111" stroke-width="2.5"/><text x="640" y="205" text-anchor="middle" font-family="Jost,Arial,sans-serif" font-weight="600" font-size="11" fill="#220111">Motor</text><rect x="690" y="158" width="40" height="26" rx="6" fill="#5E8700" stroke="#220111" stroke-width="2.5"/><text x="710" y="205" text-anchor="middle" font-family="Jost,Arial,sans-serif" font-weight="600" font-size="11" fill="#220111">Sensor</text><text x="640" y="290" text-anchor="middle" font-family="Jost,Arial,sans-serif" font-weight="700" font-size="14" fill="#220111">Components</text><text x="400" y="400" text-anchor="middle" font-family="Jost,Arial,sans-serif" font-weight="600" font-size="14" fill="#5E8700">Shopping list ~ KES 3,500–5,000</text></svg>
