<svg xmlns="http://www.w3.org/2000/svg" viewBox="0 0 800 450"><title>Machine learning training process</title><rect width="800" height="450" fill="#fff"/><text x="400.0" y="36" text-anchor="middle" font-family="Jost,Arial,sans-serif" font-weight="800" font-size="24" fill="#220111">Introduction to machine learning</text><rect x="80" y="130" width="90" height="56" rx="8" fill="#D9ECFA" stroke="#220111" stroke-width="2.5"/><circle cx="125" cy="158" r="14" fill="#F07B1D" stroke="#220111" stroke-width="2.5"/><rect x="80" y="200" width="90" height="56" rx="8" fill="#D9ECFA" stroke="#220111" stroke-width="2.5"/><circle cx="125" cy="228" r="14" fill="#5E8700" stroke="#220111" stroke-width="2.5"/><rect x="80" y="270" width="90" height="56" rx="8" fill="#D9ECFA" stroke="#220111" stroke-width="2.5"/><circle cx="125" cy="298" r="14" fill="#FFD23F" stroke="#220111" stroke-width="2.5"/><text x="125" y="360" text-anchor="middle" font-family="Jost,Arial,sans-serif" font-weight="700" font-size="13" fill="#220111">Training data</text><rect x="300" y="150" width="200" height="180" rx="14" fill="#fff" stroke="#220111" stroke-width="2.5"/><circle cx="340" cy="180" r="12" fill="#5E8700" stroke="#220111" stroke-width="2.5"/><circle cx="340" cy="230" r="12" fill="#5E8700" stroke="#220111" stroke-width="2.5"/><circle cx="340" cy="280" r="12" fill="#5E8700" stroke="#220111" stroke-width="2.5"/><circle cx="400" cy="190" r="12" fill="#5E8700" stroke="#220111" stroke-width="2.5"/><circle cx="400" cy="260" r="12" fill="#5E8700" stroke="#220111" stroke-width="2.5"/><circle cx="460" cy="225" r="12" fill="#5E8700" stroke="#220111" stroke-width="2.5"/><line x1="340" y1="180" x2="400" y2="190" stroke="#7FB3E0" stroke-width="1"/><line x1="340" y1="180" x2="400" y2="260" stroke="#7FB3E0" stroke-width="1"/><line x1="340" y1="230" x2="400" y2="190" stroke="#7FB3E0" stroke-width="1"/><line x1="340" y1="230" x2="400" y2="260" stroke="#7FB3E0" stroke-width="1"/><line x1="340" y1="280" x2="400" y2="190" stroke="#7FB3E0" stroke-width="1"/><line x1="340" y1="280" x2="400" y2="260" stroke="#7FB3E0" stroke-width="1"/><line x1="400" y1="190" x2="460" y2="225" stroke="#7FB3E0" stroke-width="1"/><line x1="400" y1="260" x2="460" y2="225" stroke="#7FB3E0" stroke-width="1"/><text x="400" y="360" text-anchor="middle" font-family="Jost,Arial,sans-serif" font-weight="700" font-size="13" fill="#220111">Neural network</text><line x1="510" y1="230" x2="600" y2="230" stroke="#220111" stroke-width="3"/><path d="M590 236 L600 230 L590 224" fill="none" stroke="#220111" stroke-width="3" stroke-linecap="round" stroke-linejoin="round"/><rect x="610" y="200" width="120" height="60" rx="10" fill="#FFD23F" stroke="#220111" stroke-width="2.5"/><text x="670" y="236" text-anchor="middle" font-family="Jost,Arial,sans-serif" font-weight="800" font-size="16" fill="#220111">cat ✓</text></svg>
