<svg xmlns="http://www.w3.org/2000/svg" viewBox="0 0 800 450"><title>Career and learning paths in robotics and AI</title><rect width="800" height="450" fill="#fff"/><text x="400.0" y="36" text-anchor="middle" font-family="Jost,Arial,sans-serif" font-weight="800" font-size="24" fill="#220111">Troubleshooting &amp; next steps</text><path d="M80 330 C260 300 240 170 420 170 C580 170 580 270 730 230" fill="none" stroke="#FFD23F" stroke-width="14" stroke-linecap="round" stroke-linejoin="round"/><circle cx="80" cy="330" r="11" fill="#F07B1D" stroke="#220111" stroke-width="2.5"/><text x="80" y="308" text-anchor="middle" font-family="Jost,Arial,sans-serif" font-weight="600" font-size="12" fill="#220111">Build</text><circle cx="250" cy="220" r="11" fill="#F07B1D" stroke="#220111" stroke-width="2.5"/><text x="250" y="198" text-anchor="middle" font-family="Jost,Arial,sans-serif" font-weight="600" font-size="12" fill="#220111">Sensors</text><circle cx="420" cy="170" r="11" fill="#F07B1D" stroke="#220111" stroke-width="2.5"/><text x="420" y="148" text-anchor="middle" font-family="Jost,Arial,sans-serif" font-weight="600" font-size="12" fill="#220111">Gripper arm</text><circle cx="580" cy="205" r="11" fill="#F07B1D" stroke="#220111" stroke-width="2.5"/><text x="580" y="183" text-anchor="middle" font-family="Jost,Arial,sans-serif" font-weight="600" font-size="12" fill="#220111">ROS</text><line x1="730" y1="230" x2="730" y2="170" stroke="#220111" stroke-width="3"/><path d="M730 170 l42 10 l-42 14 z" fill="#5E8700" stroke="#220111" stroke-width="2.5" stroke-linecap="round" stroke-linejoin="round"/><rect x="300" y="300" width="200" height="110" rx="12" fill="#fff" stroke="#220111" stroke-width="2.5"/><text x="400" y="335" text-anchor="middle" font-family="Jost,Arial,sans-serif" font-weight="800" font-size="16" fill="#F07B1D">Certificate</text><text x="400" y="362" text-anchor="middle" font-family="Jost,Arial,sans-serif" font-weight="600" font-size="13" fill="#220111">of Completion</text><circle cx="400" cy="388" r="12" fill="#FFD23F" stroke="#220111" stroke-width="2.5"/></svg>
