<svg xmlns="http://www.w3.org/2000/svg" viewBox="0 0 800 450"><title>Design Thinking for Engineering</title><rect width="800" height="450" fill="#D9ECFA"/><circle cx="120" cy="150" r="40" fill="#F07B1D" stroke="#220111" stroke-width="2.5"/><text x="120" y="155" text-anchor="middle" font-family="Jost,Arial,sans-serif" font-weight="800" font-size="26" fill="#fff">1</text><text x="120" y="215" text-anchor="middle" font-family="Jost,Arial,sans-serif" font-weight="700" font-size="14" fill="#220111">Empathize</text><line x1="164" y1="150" x2="192" y2="150" stroke="#220111" stroke-width="3"/><path d="M182 156 L192 150 L182 144" fill="none" stroke="#220111" stroke-width="3" stroke-linecap="round" stroke-linejoin="round"/><circle cx="240" cy="150" r="40" fill="#FFD23F" stroke="#220111" stroke-width="2.5"/><text x="240" y="155" text-anchor="middle" font-family="Jost,Arial,sans-serif" font-weight="800" font-size="26" fill="#fff">2</text><text x="240" y="215" text-anchor="middle" font-family="Jost,Arial,sans-serif" font-weight="700" font-size="14" fill="#220111">Define</text><line x1="284" y1="150" x2="312" y2="150" stroke="#220111" stroke-width="3"/><path d="M302 156 L312 150 L302 144" fill="none" stroke="#220111" stroke-width="3" stroke-linecap="round" stroke-linejoin="round"/><circle cx="360" cy="150" r="40" fill="#5E8700" stroke="#220111" stroke-width="2.5"/><text x="360" y="155" text-anchor="middle" font-family="Jost,Arial,sans-serif" font-weight="800" font-size="26" fill="#fff">3</text><text x="360" y="215" text-anchor="middle" font-family="Jost,Arial,sans-serif" font-weight="700" font-size="14" fill="#220111">Ideate</text><line x1="404" y1="150" x2="432" y2="150" stroke="#220111" stroke-width="3"/><path d="M422 156 L432 150 L422 144" fill="none" stroke="#220111" stroke-width="3" stroke-linecap="round" stroke-linejoin="round"/><circle cx="480" cy="150" r="40" fill="#7FB3E0" stroke="#220111" stroke-width="2.5"/><text x="480" y="155" text-anchor="middle" font-family="Jost,Arial,sans-serif" font-weight="800" font-size="26" fill="#fff">4</text><text x="480" y="215" text-anchor="middle" font-family="Jost,Arial,sans-serif" font-weight="700" font-size="14" fill="#220111">Prototype</text><line x1="524" y1="150" x2="552" y2="150" stroke="#220111" stroke-width="3"/><path d="M542 156 L552 150 L542 144" fill="none" stroke="#220111" stroke-width="3" stroke-linecap="round" stroke-linejoin="round"/><circle cx="600" cy="150" r="40" fill="#F07B1D" stroke="#220111" stroke-width="2.5"/><text x="600" y="155" text-anchor="middle" font-family="Jost,Arial,sans-serif" font-weight="800" font-size="26" fill="#fff">5</text><text x="600" y="215" text-anchor="middle" font-family="Jost,Arial,sans-serif" font-weight="700" font-size="14" fill="#220111">Test</text><g transform="translate(400 330) scale(2.0)"><path d="M0 -38 v-10" stroke="#220111" stroke-width="3"/><circle cx="0" cy="-50" r="5" fill="#FFD23F" stroke="#220111" stroke-width="2.5"/><rect x="-28" y="-38" width="56" height="44" rx="10" fill="#F07B1D" stroke="#220111" stroke-width="2.5"/><circle cx="-11" cy="-18" r="6" fill="#fff" stroke="#220111" stroke-width="2"/><circle cx="11" cy="-18" r="6" fill="#fff" stroke="#220111" stroke-width="2"/><circle cx="-11" cy="-17" r="2.5" fill="#220111"/><circle cx="11" cy="-17" r="2.5" fill="#220111"/><path d="M-9 -4 q9 7 18 0" stroke="#220111" stroke-width="2.5" fill="none" stroke-linecap="round"/><rect x="-20" y="10" width="40" height="30" rx="7" fill="#F07B1D" stroke="#220111" stroke-width="2.5"/></g><rect x="430" y="300" width="320" height="96" rx="14" fill="#fff" stroke="#220111" stroke-width="3"/><text x="590" y="342" text-anchor="middle" font-family="Jost,Arial,sans-serif" font-weight="800" font-size="32" fill="#220111">Design Thinking</text><text x="590" y="376" text-anchor="middle" font-family="Jost,Arial,sans-serif" font-weight="600" font-size="16" fill="#220111">Empathize · Build · Test · Iterate</text></svg>
