<svg xmlns="http://www.w3.org/2000/svg" viewBox="0 0 800 400"><title>A grid maze with a robot at the start and a star at the end, next to a list of program commands</title><rect width="800" height="400" fill="#fff"/><text x="400" y="36" text-anchor="middle" font-family="Jost,Arial,sans-serif" font-weight="700" font-size="24" fill="#220111">Activity: be the algorithm</text><rect x="40" y="70" width="48" height="48" fill="#fff" stroke="#220111" stroke-width="1.5"/><rect x="88" y="70" width="48" height="48" fill="#9AA3AD" stroke="#220111" stroke-width="1.5"/><rect x="136" y="70" width="48" height="48" fill="#fff" stroke="#220111" stroke-width="1.5"/><rect x="184" y="70" width="48" height="48" fill="#fff" stroke="#220111" stroke-width="1.5"/><rect x="232" y="70" width="48" height="48" fill="#fff" stroke="#220111" stroke-width="1.5"/><rect x="280" y="70" width="48" height="48" fill="#fff" stroke="#220111" stroke-width="1.5"/><rect x="328" y="70" width="48" height="48" fill="#fff" stroke="#220111" stroke-width="1.5"/><rect x="40" y="118" width="48" height="48" fill="#fff" stroke="#220111" stroke-width="1.5"/><rect x="88" y="118" width="48" height="48" fill="#9AA3AD" stroke="#220111" stroke-width="1.5"/><rect x="136" y="118" width="48" height="48" fill="#fff" stroke="#220111" stroke-width="1.5"/><rect x="184" y="118" width="48" height="48" fill="#fff" stroke="#220111" stroke-width="1.5"/><rect x="232" y="118" width="48" height="48" fill="#fff" stroke="#220111" stroke-width="1.5"/><rect x="280" y="118" width="48" height="48" fill="#9AA3AD" stroke="#220111" stroke-width="1.5"/><rect x="328" y="118" width="48" height="48" fill="#fff" stroke="#220111" stroke-width="1.5"/><rect x="40" y="166" width="48" height="48" fill="#fff" stroke="#220111" stroke-width="1.5"/><rect x="88" y="166" width="48" height="48" fill="#9AA3AD" stroke="#220111" stroke-width="1.5"/><rect x="136" y="166" width="48" height="48" fill="#fff" stroke="#220111" stroke-width="1.5"/><rect x="184" y="166" width="48" height="48" fill="#9AA3AD" stroke="#220111" stroke-width="1.5"/><rect x="232" y="166" width="48" height="48" fill="#fff" stroke="#220111" stroke-width="1.5"/><rect x="280" y="166" width="48" height="48" fill="#9AA3AD" stroke="#220111" stroke-width="1.5"/><rect x="328" y="166" width="48" height="48" fill="#fff" stroke="#220111" stroke-width="1.5"/><rect x="40" y="214" width="48" height="48" fill="#fff" stroke="#220111" stroke-width="1.5"/><rect x="88" y="214" width="48" height="48" fill="#fff" stroke="#220111" stroke-width="1.5"/><rect x="136" y="214" width="48" height="48" fill="#fff" stroke="#220111" stroke-width="1.5"/><rect x="184" y="214" width="48" height="48" fill="#9AA3AD" stroke="#220111" stroke-width="1.5"/><rect x="232" y="214" width="48" height="48" fill="#fff" stroke="#220111" stroke-width="1.5"/><rect x="280" y="214" width="48" height="48" fill="#fff" stroke="#220111" stroke-width="1.5"/><rect x="328" y="214" width="48" height="48" fill="#fff" stroke="#220111" stroke-width="1.5"/><rect x="40" y="262" width="48" height="48" fill="#fff" stroke="#220111" stroke-width="1.5"/><rect x="88" y="262" width="48" height="48" fill="#9AA3AD" stroke="#220111" stroke-width="1.5"/><rect x="136" y="262" width="48" height="48" fill="#fff" stroke="#220111" stroke-width="1.5"/><rect x="184" y="262" width="48" height="48" fill="#9AA3AD" stroke="#220111" stroke-width="1.5"/><rect x="232" y="262" width="48" height="48" fill="#fff" stroke="#220111" stroke-width="1.5"/><rect x="280" y="262" width="48" height="48" fill="#9AA3AD" stroke="#220111" stroke-width="1.5"/><rect x="328" y="262" width="48" height="48" fill="#fff" stroke="#220111" stroke-width="1.5"/><rect x="40" y="310" width="48" height="48" fill="#fff" stroke="#220111" stroke-width="1.5"/><rect x="88" y="310" width="48" height="48" fill="#fff" stroke="#220111" stroke-width="1.5"/><rect x="136" y="310" width="48" height="48" fill="#9AA3AD" stroke="#220111" stroke-width="1.5"/><rect x="184" y="310" width="48" height="48" fill="#fff" stroke="#220111" stroke-width="1.5"/><rect x="232" y="310" width="48" height="48" fill="#fff" stroke="#220111" stroke-width="1.5"/><rect x="280" y="310" width="48" height="48" fill="#9AA3AD" stroke="#220111" stroke-width="1.5"/><rect x="328" y="310" width="48" height="48" fill="#fff" stroke="#220111" stroke-width="1.5"/><g transform="translate(64 100) scale(0.5)"><path d="M0 -38 v-10" stroke="#220111" stroke-width="3"/><circle cx="0" cy="-50" r="5" fill="#FFD23F" stroke="#220111" stroke-width="2.5"/><rect x="-28" y="-38" width="56" height="44" rx="10" fill="#F07B1D" stroke="#220111" stroke-width="2.5"/><circle cx="-11" cy="-18" r="6" fill="#fff" stroke="#220111" stroke-width="2"/><circle cx="11" cy="-18" r="6" fill="#fff" stroke="#220111" stroke-width="2"/><circle cx="-11" cy="-17" r="2.5" fill="#220111"/><circle cx="11" cy="-17" r="2.5" fill="#220111"/><path d="M-9 -4 q9 7 18 0" stroke="#220111" stroke-width="2.5" fill="none" stroke-linecap="round"/><rect x="-20" y="10" width="40" height="30" rx="7" fill="#F07B1D" stroke="#220111" stroke-width="2.5"/></g><text x="352" y="344" text-anchor="middle" font-size="28">⭐</text><rect x="420" y="70" width="340" height="300" rx="14" fill="#FFF4E6" stroke="#220111" stroke-width="2.5"/><text x="440" y="100" text-anchor="start" font-family="Jost,Arial,sans-serif" font-weight="800" font-size="17" fill="#220111">My program</text><rect x="440" y="116" width="300" height="32" rx="8" fill="#F07B1D" stroke="#220111" stroke-width="2"/><text x="456" y="137" text-anchor="start" font-family="Jost,Arial,sans-serif" font-weight="700" font-size="14" fill="#fff">1. Forward 1</text><rect x="440" y="156" width="300" height="32" rx="8" fill="#7FB3E0" stroke="#220111" stroke-width="2"/><text x="456" y="177" text-anchor="start" font-family="Jost,Arial,sans-serif" font-weight="700" font-size="14" fill="#fff">2. Turn right</text><rect x="440" y="196" width="300" height="32" rx="8" fill="#F07B1D" stroke="#220111" stroke-width="2"/><text x="456" y="217" text-anchor="start" font-family="Jost,Arial,sans-serif" font-weight="700" font-size="14" fill="#fff">3. Forward 2</text><rect x="440" y="236" width="300" height="32" rx="8" fill="#fff" stroke="#220111" stroke-width="2"/><text x="456" y="257" text-anchor="start" font-family="Jost,Arial,sans-serif" font-weight="700" font-size="14" fill="#220111">…</text><rect x="440" y="276" width="300" height="32" rx="8" fill="#C9B6F2" stroke="#220111" stroke-width="2"/><text x="456" y="297" text-anchor="start" font-family="Jost,Arial,sans-serif" font-weight="700" font-size="14" fill="#220111">If wall: turn left</text><rect x="440" y="316" width="300" height="32" rx="8" fill="#5E8700" stroke="#220111" stroke-width="2"/><text x="456" y="337" text-anchor="start" font-family="Jost,Arial,sans-serif" font-weight="700" font-size="14" fill="#fff">Repeat until ⭐</text></svg>
